<svg viewBox="0 0 331 200" xmlns="http://www.w3.org/2000/svg" clip-rule="evenodd" fill-rule="evenodd" stroke-linejoin="round" stroke-miterlimit="1.414"><path d="M165.5 18.573l67.231 115.73H98.27L165.5 18.574zm0 46.159l-40.472 69.572h80.945L165.5 64.732z" fill="#3ab982" fill-rule="nonzero"/><path d="M149.89 134.303H125.03l40.471-69.57 40.472 69.57H181.11l-15.61-26.756-15.61 26.756z" fill="#34495f" fill-rule="nonzero"/><g fill-rule="nonzero"><path d="M13.324 178.018h-5.19L0 156.53h5.827l4.978 15.236h.121l4.947-15.236h5.736l-8.285 21.488zM71.93 169.915c0 1.295-.217 2.473-.652 3.536a7.686 7.686 0 01-1.867 2.731c-.81.759-1.785 1.35-2.929 1.776-1.143.425-2.412.637-3.809.637-1.416 0-2.69-.212-3.824-.637-1.133-.425-2.094-1.017-2.883-1.776a7.708 7.708 0 01-1.821-2.731c-.425-1.063-.637-2.241-.637-3.536V156.53h5.16v12.96c0 .587.075 1.143.227 1.67.152.525.384.996.698 1.41.313.415.728.744 1.244.987s1.138.364 1.867.364c.728 0 1.35-.121 1.866-.364a3.406 3.406 0 001.26-.986c.324-.415.556-.886.698-1.412a6.396 6.396 0 00.212-1.669v-12.96h5.19v13.385zM106.469 178.018V156.53h14.447v4.401h-9.44v4.037h8.924v4.158h-8.923v4.461h9.985v4.431h-14.993zM174.15 175.044c-.95 1.093-2.124 1.958-3.52 2.595-1.397.637-3.005.956-4.826.956-1.66 0-3.192-.273-4.598-.82a10.801 10.801 0 01-3.658-2.321c-1.031-1.002-1.84-2.2-2.428-3.597-.586-1.396-.88-2.934-.88-4.613 0-1.72.299-3.278.896-4.674.596-1.396 1.421-2.585 2.473-3.566a10.955 10.955 0 013.703-2.261c1.416-.526 2.944-.79 4.583-.79 1.517 0 3.01.269 4.476.805 1.467.536 2.656 1.32 3.567 2.352l-3.521 3.52a4.357 4.357 0 00-1.912-1.486 6.342 6.342 0 00-2.428-.486c-.91 0-1.745.167-2.504.5a5.874 5.874 0 00-1.958 1.382 6.291 6.291 0 00-1.274 2.079c-.304.799-.456 1.674-.456 2.625 0 .971.152 1.862.456 2.67a6.22 6.22 0 001.26 2.08 5.672 5.672 0 001.926 1.35 6.128 6.128 0 002.459.486c1.032 0 1.932-.202 2.701-.607.769-.405 1.386-.93 1.851-1.578l3.612 3.4zM228.75 167.183c0 1.7-.293 3.253-.88 4.66-.587 1.405-1.401 2.61-2.443 3.61-1.042 1.002-2.281 1.776-3.718 2.323-1.437.546-2.995.82-4.674.82-1.68 0-3.232-.274-4.659-.82-1.426-.547-2.66-1.32-3.702-2.322-1.043-1.002-1.857-2.206-2.444-3.612-.586-1.406-.88-2.959-.88-4.659 0-1.72.294-3.272.88-4.658.587-1.386 1.401-2.565 2.444-3.536 1.042-.971 2.276-1.72 3.702-2.246 1.427-.526 2.98-.79 4.659-.79 1.68 0 3.237.264 4.674.79 1.437.526 2.676 1.275 3.718 2.246 1.042.971 1.856 2.15 2.443 3.536.587 1.386.88 2.939.88 4.658zm-5.554 0c0-.93-.152-1.8-.455-2.61a6.22 6.22 0 00-1.26-2.079 5.814 5.814 0 00-1.942-1.366c-.759-.333-1.593-.5-2.504-.5-.91 0-1.74.167-2.489.5a6.025 6.025 0 00-1.942 1.366 5.907 5.907 0 00-1.26 2.08c-.293.809-.44 1.679-.44 2.61 0 .97.152 1.866.456 2.685.303.82.723 1.523 1.259 2.11a5.75 5.75 0 001.927 1.38c.749.334 1.579.501 2.489.501.91 0 1.74-.167 2.489-.5a5.915 5.915 0 001.942-1.381 6.229 6.229 0 001.275-2.11c.303-.82.455-1.714.455-2.686zM276.188 178.018l-8.65-14.052h-.091l.121 14.052h-5.038V156.53h5.918l8.62 14.022h.091l-.121-14.022h5.038v21.488h-5.888z" fill="#34495f"/><path d="M321.986 160.962v4.43h8.316v4.28h-8.316v8.346h-5.129V156.53H331v4.432h-9.014z" fill="#34496f"/></g><g transform="matrix(1.52625 0 0 1.52624 -2875.003 -1831.838)"><circle cx="1974.5" cy="1310.5" r="1.5" fill="#3ab982"/></g></svg>