<svg id="Layer_1" xmlns="http://www.w3.org/2000/svg" xmlns:xlink="http://www.w3.org/1999/xlink" viewBox="0 0 2342 510" enable-background="new 0 0 2342 510"><style>.st0{fill:#144372}.st1{fill:#fff}.st4{fill:none}.st5,.st6{fill:none;stroke:#fff;stroke-miterlimit:10}.st6{stroke:#03324c}.st7{fill:#014467}.st8{display:none}.st12{fill:#03324c}.st20,.st26{stroke-miterlimit:10}.st20{opacity:.5;fill:#03324c;stroke:#fff;enable-background:new}.st26{fill:#144372;stroke:#0b598a}.st28{enable-background:new;opacity:.33;fill:#55a4db}.st29{fill:none;stroke:#fff;stroke-width:1.2491;stroke-miterlimit:10}.st32{opacity:.2}.st35{enable-background:new;fill:none;stroke:#0b598a;stroke-width:1.2491;stroke-linecap:round;stroke-linejoin:round;stroke-miterlimit:10;opacity:.51}.st38{fill:#0b598a}.st47{fill:#178fcf}.st53,.st60{fill:#03324c;stroke:#fff;stroke-miterlimit:10}.st60{stroke-width:.5;fill:#144372;stroke:#f4f0e2}.st62,.st64,.st67{stroke:#fff;stroke-miterlimit:10}.st62{fill:#03324c;stroke-width:.5}.st64,.st67{fill:#0b598a}.st67{fill:#55a4db}.st72{fill:#3a91ce}.st73{opacity:.4}.st77{fill:none;stroke-width:.6246}.st77,.st78,.st88{stroke:#fff;stroke-miterlimit:10}.st78{fill:none;stroke-width:3.7474}.st88{enable-background:new;opacity:.5;fill:#14333f;stroke-linecap:round;stroke-linejoin:round}</style><symbol id="New_Symbol" viewBox="-8 -7.1 16 14.1"><path class="st0" d="M0-6.9c-4 0-6.6.5-6.8.8 0 .1-.9 2.8-.9 6s.9 5.9.9 5.9c.2.5 2.8 1 6.8 1s6.6-.5 6.8-.8c0-.1.7-2.7.7-6s-.7-5.9-.7-6C6.6-6.4 4-6.9 0-6.9z"/><path class="st1" d="M0 6.6c3.9 0 6.1-.5 6.5-.7.1-.3.7-2.9.7-5.9s-.6-5.6-.7-5.9c-.4-.2-2.6-.7-6.5-.7s-6.1.5-6.5.7c-.1.3-.9 2.9-.9 5.9s.8 5.7.9 5.8c.4.3 2.6.8 6.5.8m0 .5c-3.9 0-7-.5-7-1.1 0 0-.9-2.7-.9-6s.9-5.9.9-5.9C-7-6.5-3.9-7 0-7s7 .5 7 1.1c0 0 .7 2.6.7 6S7 5.9 7 5.9c0 .7-3.1 1.2-7 1.2z"/><path d="M1-5.9h-2v12h2z" fill="#052738"/></symbol><pattern y="510" width="72" height="72" patternUnits="userSpaceOnUse" id="SVGID_13_" viewBox="0 -72.5 72 72" overflow="visible"><path class="st4" d="M0-72.5h72v72H0z"/><path class="st4" d="M0-72.5h72v72H0z"/><path class="st4" d="M0-72.5h72v72H0z"/><path class="st5" d="M0-.5h72m-72-72h72m-72 6h72m-72 6h72m-72 6h72m-72 6h72m-72 6h72m-72 6h72m-72 6h72m-72 6h72m-72 6h72m-72 6h72m-72 6h72M0-.5h72M0-72.5h72"/></pattern><pattern y="510" width="72" height="72" patternUnits="userSpaceOnUse" id="SVGID_14_" viewBox="0 -72.5 72 72" overflow="visible"><path class="st4" d="M0-72.5h72v72H0z"/><path class="st4" d="M0-72.5h72v72H0z"/><path class="st4" d="M0-72.5h72v72H0z"/><path class="st5" d="M0-.5h72m-72-72h72m-72 6h72m-72 6h72m-72 6h72m-72 6h72m-72 6h72m-72 6h72m-72 6h72m-72 6h72m-72 6h72m-72 6h72m-72 6h72M0-.5h72M0-72.5h72"/></pattern><pattern y="510" width="72" height="72" patternUnits="userSpaceOnUse" id="SVGID_30_" viewBox="0 -72.5 72 72" overflow="visible"><path class="st4" d="M0-72.5h72v72H0z"/><path class="st4" d="M0-72.5h72v72H0z"/><path class="st4" d="M0-72.5h72v72H0z"/><path class="st6" d="M0-.5h72m-72-72h72m-72 6h72m-72 6h72m-72 6h72m-72 6h72m-72 6h72m-72 6h72m-72 6h72m-72 6h72m-72 6h72m-72 6h72m-72 6h72M0-.5h72M0-72.5h72"/></pattern><pattern y="510" width="20" height="20" patternUnits="userSpaceOnUse" id="SVGID_31_" viewBox="2.7 -20 20 20" overflow="visible"><path class="st4" d="M2.7-20h20V0h-20z"/><path class="st4" d="M2.7-20h20V0h-20z"/><path class="st4" d="M2.7-20h20V0h-20z"/><path class="st7" d="M25.4-4.1H20v-11.8h5.4zm-10 0H10v-11.8h5.4zm-10 0H0v-11.8h5.4z"/></pattern><pattern y="510" width="72" height="72" patternUnits="userSpaceOnUse" id="SVGID_32_" viewBox="0 -72.5 72 72" overflow="visible"><path class="st4" d="M0-72.5h72v72H0z"/><path class="st4" d="M0-72.5h72v72H0z"/><path class="st4" d="M0-72.5h72v72H0z"/><path class="st5" d="M0-.5h72m-72-72h72m-72 6h72m-72 6h72m-72 6h72m-72 6h72m-72 6h72m-72 6h72m-72 6h72m-72 6h72m-72 6h72m-72 6h72m-72 6h72M0-.5h72M0-72.5h72"/></pattern><pattern y="510" width="72" height="72" patternUnits="userSpaceOnUse" id="SVGID_33_" viewBox="0 -72.5 72 72" overflow="visible"><path class="st4" d="M0-72.5h72v72H0z"/><path class="st4" d="M0-72.5h72v72H0z"/><path class="st4" d="M0-72.5h72v72H0z"/><path class="st5" d="M0-.5h72m-72-72h72m-72 6h72m-72 6h72m-72 6h72m-72 6h72m-72 6h72m-72 6h72m-72 6h72m-72 6h72m-72 6h72m-72 6h72m-72 6h72M0-.5h72M0-72.5h72"/></pattern><pattern y="510" width="72" height="72" patternUnits="userSpaceOnUse" id="SVGID_34_" viewBox="0 -72.5 72 72" overflow="visible"><path class="st4" d="M0-72.5h72v72H0z"/><path class="st4" d="M0-72.5h72v72H0z"/><path class="st4" d="M0-72.5h72v72H0z"/><path class="st5" d="M0-.5h72m-72-72h72m-72 6h72m-72 6h72m-72 6h72m-72 6h72m-72 6h72m-72 6h72m-72 6h72m-72 6h72m-72 6h72m-72 6h72m-72 6h72M0-.5h72M0-72.5h72"/></pattern><pattern y="510" width="72" height="72" patternUnits="userSpaceOnUse" id="SVGID_35_" viewBox="0 -72.5 72 72" overflow="visible"><path class="st4" d="M0-72.5h72v72H0z"/><path class="st4" d="M0-72.5h72v72H0z"/><path class="st4" d="M0-72.5h72v72H0z"/><path class="st5" d="M0-.5h72m-72-72h72m-72 6h72m-72 6h72m-72 6h72m-72 6h72m-72 6h72m-72 6h72m-72 6h72m-72 6h72m-72 6h72m-72 6h72m-72 6h72M0-.5h72M0-72.5h72"/></pattern><pattern y="510" width="72" height="72" patternUnits="userSpaceOnUse" id="SVGID_36_" viewBox="0 -72.5 72 72" overflow="visible"><path class="st4" d="M0-72.5h72v72H0z"/><path class="st4" d="M0-72.5h72v72H0z"/><path class="st4" d="M0-72.5h72v72H0z"/><path class="st5" d="M0-.5h72m-72-72h72m-72 6h72m-72 6h72m-72 6h72m-72 6h72m-72 6h72m-72 6h72m-72 6h72m-72 6h72m-72 6h72m-72 6h72m-72 6h72M0-.5h72M0-72.5h72"/></pattern><pattern y="510" width="72" height="72" patternUnits="userSpaceOnUse" id="SVGID_37_" viewBox="0 -72.5 72 72" overflow="visible"><path class="st4" d="M0-72.5h72v72H0z"/><path class="st4" d="M0-72.5h72v72H0z"/><path class="st4" d="M0-72.5h72v72H0z"/><path class="st5" d="M0-.5h72m-72-72h72m-72 6h72m-72 6h72m-72 6h72m-72 6h72m-72 6h72m-72 6h72m-72 6h72m-72 6h72m-72 6h72m-72 6h72m-72 6h72M0-.5h72M0-72.5h72"/></pattern><pattern y="510" width="72" height="72" patternUnits="userSpaceOnUse" id="SVGID_43_" viewBox="0 -72.5 72 72" overflow="visible"><path class="st4" d="M0-72.5h72v72H0z"/><path class="st4" d="M0-72.5h72v72H0z"/><path class="st4" d="M0-72.5h72v72H0z"/><path class="st6" d="M0-.5h72m-72-72h72m-72 6h72m-72 6h72m-72 6h72m-72 6h72m-72 6h72m-72 6h72m-72 6h72m-72 6h72m-72 6h72m-72 6h72m-72 6h72M0-.5h72M0-72.5h72"/></pattern><pattern y="510" width="72" height="72" patternUnits="userSpaceOnUse" id="SVGID_44_" viewBox="0 -72.5 72 72" overflow="visible"><path class="st4" d="M0-72.5h72v72H0z"/><path class="st4" d="M0-72.5h72v72H0z"/><path class="st4" d="M0-72.5h72v72H0z"/><path class="st5" d="M0-.5h72m-72-72h72m-72 6h72m-72 6h72m-72 6h72m-72 6h72m-72 6h72m-72 6h72m-72 6h72m-72 6h72m-72 6h72m-72 6h72m-72 6h72M0-.5h72M0-72.5h72"/></pattern><pattern y="510" width="72" height="72" patternUnits="userSpaceOnUse" id="SVGID_45_" viewBox="0 -72.5 72 72" overflow="visible"><path class="st4" d="M0-72.5h72v72H0z"/><path class="st4" d="M0-72.5h72v72H0z"/><path class="st4" d="M0-72.5h72v72H0z"/><path class="st5" d="M0-.5h72m-72-72h72m-72 6h72m-72 6h72m-72 6h72m-72 6h72m-72 6h72m-72 6h72m-72 6h72m-72 6h72m-72 6h72m-72 6h72m-72 6h72M0-.5h72M0-72.5h72"/></pattern><pattern y="510" width="72" height="72" patternUnits="userSpaceOnUse" id="SVGID_46_" viewBox="0 -72.5 72 72" overflow="visible"><path class="st4" d="M0-72.5h72v72H0z"/><path class="st4" d="M0-72.5h72v72H0z"/><path class="st4" d="M0-72.5h72v72H0z"/><path class="st6" d="M0-.5h72m-72-72h72m-72 6h72m-72 6h72m-72 6h72m-72 6h72m-72 6h72m-72 6h72m-72 6h72m-72 6h72m-72 6h72m-72 6h72m-72 6h72M0-.5h72M0-72.5h72"/></pattern><pattern y="510" width="20" height="20" patternUnits="userSpaceOnUse" id="SVGID_47_" viewBox="2.7 -20 20 20" overflow="visible"><path class="st4" d="M2.7-20h20V0h-20z"/><path class="st4" d="M2.7-20h20V0h-20z"/><path class="st4" d="M2.7-20h20V0h-20z"/><path class="st7" d="M25.4-4.1H20v-11.8h5.4zm-10 0H10v-11.8h5.4zm-10 0H0v-11.8h5.4z"/></pattern><pattern y="510" width="72" height="72" patternUnits="userSpaceOnUse" id="SVGID_48_" viewBox="0 -72.5 72 72" overflow="visible"><path class="st4" d="M0-72.5h72v72H0z"/><path class="st4" d="M0-72.5h72v72H0z"/><path class="st4" d="M0-72.5h72v72H0z"/><path class="st5" d="M0-.5h72m-72-72h72m-72 6h72m-72 6h72m-72 6h72m-72 6h72m-72 6h72m-72 6h72m-72 6h72m-72 6h72m-72 6h72m-72 6h72m-72 6h72M0-.5h72M0-72.5h72"/></pattern><pattern y="510" width="72" height="72" patternUnits="userSpaceOnUse" id="SVGID_49_" viewBox="0 -72.5 72 72" overflow="visible"><path class="st4" d="M0-72.5h72v72H0z"/><path class="st4" d="M0-72.5h72v72H0z"/><path class="st4" d="M0-72.5h72v72H0z"/><path class="st5" d="M0-.5h72m-72-72h72m-72 6h72m-72 6h72m-72 6h72m-72 6h72m-72 6h72m-72 6h72m-72 6h72m-72 6h72m-72 6h72m-72 6h72m-72 6h72M0-.5h72M0-72.5h72"/></pattern><pattern y="510" width="72" height="72" patternUnits="userSpaceOnUse" id="SVGID_50_" viewBox="0 -72.5 72 72" overflow="visible"><path class="st4" d="M0-72.5h72v72H0z"/><path class="st4" d="M0-72.5h72v72H0z"/><path class="st4" d="M0-72.5h72v72H0z"/><path class="st5" d="M0-.5h72m-72-72h72m-72 6h72m-72 6h72m-72 6h72m-72 6h72m-72 6h72m-72 6h72m-72 6h72m-72 6h72m-72 6h72m-72 6h72m-72 6h72M0-.5h72M0-72.5h72"/></pattern><pattern y="510" width="72" height="72" patternUnits="userSpaceOnUse" id="SVGID_51_" viewBox="0 -72.5 72 72" overflow="visible"><path class="st4" d="M0-72.5h72v72H0z"/><path class="st4" d="M0-72.5h72v72H0z"/><path class="st4" d="M0-72.5h72v72H0z"/><path class="st5" d="M0-.5h72m-72-72h72m-72 6h72m-72 6h72m-72 6h72m-72 6h72m-72 6h72m-72 6h72m-72 6h72m-72 6h72m-72 6h72m-72 6h72m-72 6h72M0-.5h72M0-72.5h72"/></pattern><pattern y="510" width="72" height="72" patternUnits="userSpaceOnUse" id="SVGID_52_" viewBox="0 -72.5 72 72" overflow="visible"><path class="st4" d="M0-72.5h72v72H0z"/><path class="st4" d="M0-72.5h72v72H0z"/><path class="st4" d="M0-72.5h72v72H0z"/><path class="st5" d="M0-.5h72m-72-72h72m-72 6h72m-72 6h72m-72 6h72m-72 6h72m-72 6h72m-72 6h72m-72 6h72m-72 6h72m-72 6h72m-72 6h72m-72 6h72M0-.5h72M0-72.5h72"/></pattern><pattern y="510" width="72" height="72" patternUnits="userSpaceOnUse" id="SVGID_53_" viewBox="0 -72.5 72 72" overflow="visible"><path class="st4" d="M0-72.5h72v72H0z"/><path class="st4" d="M0-72.5h72v72H0z"/><path class="st4" d="M0-72.5h72v72H0z"/><path class="st5" d="M0-.5h72m-72-72h72m-72 6h72m-72 6h72m-72 6h72m-72 6h72m-72 6h72m-72 6h72m-72 6h72m-72 6h72m-72 6h72m-72 6h72m-72 6h72M0-.5h72M0-72.5h72"/></pattern><pattern y="510" width="72" height="72" patternUnits="userSpaceOnUse" id="SVGID_54_" viewBox="0 -72.5 72 72" overflow="visible"><path class="st4" d="M0-72.5h72v72H0z"/><path class="st4" d="M0-72.5h72v72H0z"/><path class="st4" d="M0-72.5h72v72H0z"/><path class="st6" d="M0-.5h72m-72-72h72m-72 6h72m-72 6h72m-72 6h72m-72 6h72m-72 6h72m-72 6h72m-72 6h72m-72 6h72m-72 6h72m-72 6h72m-72 6h72M0-.5h72M0-72.5h72"/></pattern><pattern y="510" width="72" height="72" patternUnits="userSpaceOnUse" id="SVGID_55_" viewBox="0 -72.5 72 72" overflow="visible"><path class="st4" d="M0-72.5h72v72H0z"/><path class="st4" d="M0-72.5h72v72H0z"/><path class="st4" d="M0-72.5h72v72H0z"/><path class="st5" d="M0-.5h72m-72-72h72m-72 6h72m-72 6h72m-72 6h72m-72 6h72m-72 6h72m-72 6h72m-72 6h72m-72 6h72m-72 6h72m-72 6h72m-72 6h72M0-.5h72M0-72.5h72"/></pattern><pattern y="510" width="72" height="72" patternUnits="userSpaceOnUse" id="SVGID_56_" viewBox="0 -72.5 72 72" overflow="visible"><path class="st4" d="M0-72.5h72v72H0z"/><path class="st4" d="M0-72.5h72v72H0z"/><path class="st4" d="M0-72.5h72v72H0z"/><path class="st5" d="M0-.5h72m-72-72h72m-72 6h72m-72 6h72m-72 6h72m-72 6h72m-72 6h72m-72 6h72m-72 6h72m-72 6h72m-72 6h72m-72 6h72m-72 6h72M0-.5h72M0-72.5h72"/></pattern><pattern y="510" width="72" height="72" patternUnits="userSpaceOnUse" id="SVGID_57_" viewBox="0 -72.5 72 72" overflow="visible"><path class="st4" d="M0-72.5h72v72H0z"/><path class="st4" d="M0-72.5h72v72H0z"/><path class="st4" d="M0-72.5h72v72H0z"/><path class="st5" d="M0-.5h72m-72-72h72m-72 6h72m-72 6h72m-72 6h72m-72 6h72m-72 6h72m-72 6h72m-72 6h72m-72 6h72m-72 6h72m-72 6h72m-72 6h72M0-.5h72M0-72.5h72"/></pattern><path class="st8" d="M0 0h2342v510H0z" id="bg_blank" display="inline" fill="#03324c"/><g class="st8" id="bg" display="inline"><defs><path id="SVGID_1_" d="M-.1 0h2342v510H-.1z"/></defs><clipPath id="SVGID_2_"><use xlink:href="#SVGID_1_" overflow="visible"/></clipPath><g clip-path="url(#SVGID_2_)"><path class="st12" d="M1328 374v-40h107v-7h9v6h4v-8.1l10 .5V339h25v-8h27v5h36v38z"/><path d="M2028 219.4V468h35V228.9z" opacity=".2" fill="#178fcf" enable-background="new"/><path class="st12" d="M1894 106v329.4l-18-18.4V106zM436 297h89v141h-89z"/><pattern id="SVGID_3_" xlink:href="#SVGID_13_" patternTransform="matrix(.6889 -.75 .5511 .6 -2448.839 1633.11)"/><path d="M389 339h45v58h-45z" opacity=".4" fill="url(#SVGID_3_)" enable-background="new"/><pattern id="SVGID_4_" xlink:href="#SVGID_14_" patternTransform="matrix(.8166 -.7876 .6533 .6301 867.779 2100.494)"/><path d="M1894 436.4l49 26.5V65.4l-49 10.2z" opacity=".18" fill="url(#SVGID_4_)" enable-background="new"/><path class="st12" d="M1761 372.6l-44-7.1V282h44zm220.7 95.4c.8-1-.3-165.9-.3-165.9l11.6-14.2V468h-11.3z"/><path d="M2153 376h106v91h-106z" opacity=".1" fill="#178fcf" enable-background="new"/><pattern id="SVGID_5_" xlink:href="#SVGID_30_" patternTransform="matrix(.7471 -.7265 .7471 .7265 30.99 4873.967)"/><path d="M2152 379V275h-63v193h181v-89z" fill="url(#SVGID_5_)"/><path class="st12" d="M144 411h78v27h-78z"/><path class="st7" d="M367.7 146.3l2.3 299.1 19-23V206.6zM318 393h-51v-66.2l51 33.5z"/><pattern id="SVGID_6_" xlink:href="#SVGID_31_" patternTransform="matrix(.5 0 0 .5 -10525.14 4365.572)"/><path d="M90 336h48v90H90z" fill="url(#SVGID_6_)"/><path class="st12" d="M1095 338.4V273h-15l.5-92h42.5v-60h20v-13h25V97h44v14h7V93h43v15h36v19.5l19.1-14.5h37.4l-.5 42h19v17h23v21h9.5l-.5 9h27v43h-43v25h-40v69h-23v36h-231z"/><path class="st20" d="M892 269.5h131.5v-91h-6V151l-7 7.2v-37.7h37v19h10v9h18v17h12V390l-46.8-26.1M786.2 89.6l49.3 8.6-.8 248.3"/><pattern id="SVGID_7_" xlink:href="#SVGID_32_" patternTransform="matrix(.6889 -.75 .5511 .6 -2448.839 1633.11)"/><path d="M786.1 88.7l48.1 10 1.5 274.3H786z" enable-background="new" opacity=".4" fill="url(#SVGID_7_)"/><path class="st12" d="M1430 222h181v-70.6l51-9.8V268h-103v7h-41v-13h-24v-14h-64z"/><path class="st12" d="M1589 93.4V226h73v-83.6l-11 1.4v-41.4z"/><path d="M647 437.5h-92.5v-138h79v-14h14V367" stroke="#fff" stroke-miterlimit="10" opacity=".2" fill="#0b598a" enable-background="new"/><path class="st5" d="M1650.5 144v-41.9l-61.6-8.3-80.4 8.3V222"/><pattern id="SVGID_8_" xlink:href="#SVGID_33_" patternTransform="matrix(.7071 -.70712 .5657 .56568 -2067.287 1166.61)"/><path d="M1588 222V93.4l-79 8.7V222z" opacity=".4" fill="url(#SVGID_8_)" enable-background="new"/><path d="M1722.5 280V150.6l-61-8.7-51 9.7v69.9h-179v-23h-27v-10h-10v-19h-22v-17h-19v-41h-37.4l-19.6 15.1v-19.1h-35v-14h-43v17h-7v-13h-44v10h-25v13h-20v58h-44v91H1031M834.6 377.6l.2-114.4 5.7-18.7" stroke-miterlimit="10" opacity=".5" fill="none" stroke="#fff" stroke-linecap="round" enable-background="new"/><path class="st5" d="M745.5 377.5h-59V235.1l34.1-8.6h24.9z"/><path d="M720.5 227.1l-34 8v143.2l34-.4z" opacity=".4" enable-background="new" fill="#55a4db" stroke="#fff" stroke-miterlimit="10"/><path class="st5" d="M786.5 90v266"/><path class="st26" d="M554.8 299.2l-17.3 3.8v134.5H555c0-1-.2-138.3-.2-138.3z"/><path d="M554.8 299.2l-17.3 3.8v134.5H555c0-1-.2-138.3-.2-138.3z" stroke="#0b598a" stroke-miterlimit="10" opacity=".2" fill="#3a91ce" enable-background="new"/><g opacity=".3"><path d="M934 371V227h8v-44h8v-12h7v-9h5.3l-.4-19.2 47.1-7.1V155h14v22.8l7-.6V363" fill="#223c49"/><path class="st28" d="M934 371V227h8v-44h8v-12h7v-9h5.3l-.4-19.2 47.1-7.1V155h14v22.8l7-.6V363"/><path class="st5" d="M934.5 371V227.5h7v-44h9v-13h6v-8h5.8l-.1-19.4 47.3-7.4v18.8h13v23.3l8-.6V363"/></g><g class="st32"><pattern id="SVGID_9_" xlink:href="#SVGID_34_" patternTransform="matrix(.7071 -.70712 .5657 .56568 -2067.287 1166.61)" class="st32"/><path d="M934 371V227h8v-44h8v-12h7v-9h5.3l-.4-19.2 47.1-7.1V155h14v22.8l7-.6V363" fill="url(#SVGID_9_)"/><path class="st28" d="M934 371V227h8v-44h8v-12h7v-9h5.3l-.4-19.2 47.1-7.1V155h14v22.8l7-.6V363"/></g><path class="st12" d="M1541 376v-40h-36v-6h-27v9h-25v-15h-10v8h-4v-6h-9v7h-107v40"/><pattern id="SVGID_10_" xlink:href="#SVGID_35_" patternTransform="matrix(.7071 -.70712 .5657 .56568 -2067.287 1166.61)"/><path d="M1612 151v116h50V141" enable-background="new" opacity=".4" fill="url(#SVGID_10_)"/><path class="st35" d="M1221 422.5l1.3 5.2"/><path class="st20" d="M745.5 99.1l41-10v291.3l-41 .1z"/><path d="M1009.5 120.7l-15 3.1v13.6l15.1-2.5z" stroke="#fff" stroke-miterlimit="10" fill="#126fa1" opacity=".4" enable-background="new"/><pattern id="SVGID_11_" xlink:href="#SVGID_36_" patternTransform="matrix(.3382 -.3382 .2706 .2706 -11862.33 -3506.177)"/><path d="M1009 120.6l-15 3.2V137" fill="url(#SVGID_11_)" opacity=".4" enable-background="new"/><path class="st38" d="M559.3 381.6l-7.3.2v-4.2l5.4-1z"/><pattern id="SVGID_12_" xlink:href="#SVGID_37_" patternTransform="matrix(.8166 -.7876 .6533 .6301 867.779 2100.494)"/><path d="M318 145h45v300h-45z" opacity=".18" fill="url(#SVGID_12_)" enable-background="new"/><path class="st12" d="M-2 432h506v13H-2z"/><path d="M-2 469.5h2345.5v-42h-37v-91h-48v39h-105v-102h-66v40h-24v-85.6l-34.4-9.5-35.6 9.5v60l-11 10.9V77.5h-18v-17h-21.6l-48.4 10.3v34.7h-20v147h-72v60h-40v-31h-47v37h-175v-43.1l-22.8-.5.4-12.5-23.6.5v-14.4h-64v-9h-41.7l.5 23.7-38.5.4-2 105.9h-50.3v-103h-107v73h-125v20.4l-175 11.3V244.5h-51v102h-142v-80h-47v92h-125v-63h-92v42h-44V204.8l-22.8-59.3h-49.2v182h-51v-54h-46v136h-77v-82h-61v100H-2" opacity=".5" fill="#1c272d" stroke="#f6f6f6" stroke-miterlimit="10" enable-background="new"/></g></g><defs><filter id="Adobe_OpacityMaskFilter" filterUnits="userSpaceOnUse" x="-2" y="0" width="2346" height="510"><feColorMatrix values="1 0 0 0 0 0 1 0 0 0 0 0 1 0 0 0 0 0 1 0"/></filter></defs><mask maskUnits="userSpaceOnUse" x="-2" y="0" width="2346" height="510" id="front_1_"><g filter="url(#Adobe_OpacityMaskFilter)"><defs><path id="SVGID_15_" d="M0 0h2342v510H0z"/></defs><clipPath id="SVGID_16_"><use xlink:href="#SVGID_15_" overflow="visible"/></clipPath><linearGradient id="SVGID_17_" gradientUnits="userSpaceOnUse" y1="253.9" x2="2342" y2="253.9" gradientTransform="matrix(1 0 0 -1 0 509)"><stop offset="0"/><stop offset=".1" stop-color="#fff"/><stop offset=".9" stop-color="#fff"/><stop offset="1"/></linearGradient><path d="M0 .1h2342v510H0z" clip-path="url(#SVGID_16_)" fill="url(#SVGID_17_)"/></g></mask><g mask="url(#front_1_)"><defs><path id="SVGID_18_" d="M0 0h2342v510H0z"/></defs><clipPath id="SVGID_19_"><use xlink:href="#SVGID_18_" overflow="visible"/></clipPath><g clip-path="url(#SVGID_19_)"><g id="front"><defs><path id="SVGID_20_" d="M-.1 0h2342v510H-.1z"/></defs><clipPath id="SVGID_21_"><use xlink:href="#SVGID_20_" overflow="visible"/></clipPath><g clip-path="url(#SVGID_21_)"><path class="st12" d="M1328 373v-40h107v-7h9v6h4v-8.1l10 .5V338h25v-8h27v5h36v38z"/><path d="M2306.5 427.5v-92h-48v39h-105v-102h-66v40h-24v-85.6l-34.4-9.5-35.6 9.5v60l-11 10.9V76.5h-18v-17h-22l-48 10.3v34.7h-20v147h-72v60h-40v-31h-47v37h-175v-43.1l-23-.5.5-12.5-23.5.5v-14.4h-64v-9h-42l.5 23.7-38.5.4-2 105.9h-50v-103h-107v73h-125v20.4l-175 11.3V243.5h-51v102h-142v-80h-47v92h-125v-63h-92v42h-44V203.8l-22.9-59.3h-49.1v182h-51v-54h-46v136h-77v-82h-61v100h-85v42h2345v-41z" opacity=".5" fill="#044f81" stroke="#f6f6f6" stroke-miterlimit="10" enable-background="new"/><path class="st47" d="M2028 218.4V467h35V227.9z"/><path class="st12" d="M1894 105v329.4l-18-18.4V105zM436 296h89v141h-89z"/><path class="st0" d="M1560 266.4V375h50l33.5-17.1 19.5 2-1-92.6z"/><pattern id="SVGID_22_" xlink:href="#SVGID_43_" patternTransform="rotate(-45.001 4809.29 3586.992)"/><path d="M1560 266.4V375h50l33.5-17.1 19.5 2-1-92.6z" fill="url(#SVGID_22_)"/><pattern id="SVGID_23_" xlink:href="#SVGID_44_" patternTransform="matrix(.6889 -.75 .5511 .6 -2528.195 1545.708)"/><path d="M389 338h45v58h-45z" opacity=".4" fill="url(#SVGID_23_)" enable-background="new"/><path class="st12" d="M796 447.4v-40l249-25.2v30.2z"/><path class="st0" d="M1805 254h71v212h-71z"/><pattern id="SVGID_24_" xlink:href="#SVGID_45_" patternTransform="matrix(.8166 -.7876 .6533 .6301 773.71 2008.758)"/><path d="M1894 435.4l49 26.5V64.4l-49 10.2z" opacity=".18" fill="url(#SVGID_24_)" enable-background="new"/><path class="st12" d="M1761 371.6l-44-7.1V281h44zm220.7 95.4c.8-1-.3-165.9-.3-165.9l11.6-14.2V467h-11.3z"/><path class="st47" d="M2153 375h109v90h-109z"/><pattern id="SVGID_25_" xlink:href="#SVGID_46_" patternTransform="rotate(-45.001 4809.29 3586.992)"/><path d="M2151 378V277h-60v188h171v-87z" fill="url(#SVGID_25_)"/><path class="st12" d="M144 410h78v27h-78z"/><path class="st7" d="M367.7 145.3l2.3 299.1 19-23V205.6zM318 392h-51v-66.2l51 33.5z"/><pattern id="SVGID_26_" xlink:href="#SVGID_47_" patternTransform="matrix(.5 0 0 .5 -10565.14 4294.572)"/><path d="M90 335h48v90H90z" fill="url(#SVGID_26_)"/><path class="st12" d="M1095 327.4V265h-15l.5-89h42.5v-57h20v-13h25V96h44v13h7V92h43v14h36v19.1l19.1-14.1h37.4l-.5 40h19v17h23v20h9.5l-.5 9h27v41h-43v24h-40v66h-23v34h-231z"/><path class="st53" d="M720.5 325v-96.5h22v147-39h44l-.2-248.9 49.3 9.6v241.3h57v-70h131v-91h-6V150l-7 7.2v-37.7h37v19h10v9h18v17h12V389l-46.5-26.1-282.7 15.8s-24.7-3.2-37.7-1.8l-.2-51.9z"/><pattern id="SVGID_27_" xlink:href="#SVGID_48_" patternTransform="matrix(.6889 -.75 .5511 .6 -2528.195 1545.708)"/><path d="M786.1 87.7l48.1 10 1.5 274.3H786z" opacity=".4" fill="url(#SVGID_27_)" enable-background="new"/><path class="st12" d="M1430 221h181v-70.6l51-9.8V267h-103v7h-41v-13h-24v-14h-64z"/><path class="st12" d="M1589 92.4V225h73v-83.6l-11 1.4v-41.4z"/><path class="st53" d="M627 43.5h-6.5v-1.8c0-.9-.4-1.2-.4-1.2h-1.5l-1.5-27.2-1.5 27.2h-1.5s-1.7.3-1.7 1.2v1.8h-5.3s-1.7.9-1.7 2.1v1.9s11-.6 22 0v-1.9c0-1.2-.4-2.1-.4-2.1z"/><path d="M618.5 60c20.1 0 35.5 2.9 35.5 2.9s-16.8-5.5-20.3-7c-4.6-1.9-5.6-4.3-5.6-4.3l4.6-3.9c-.9-1.7-15.1-1.7-15.1-1.7h-1.5s-14.2 0-15.1 1.7l4.6 3.8s-.8 2.4-5.6 4.3c-3.6 1.4-20.3 7-20.3 7S595 60 615 60h3.5z" fill="#f4f0e2"/><path class="st12" d="M653.9 63.1c-.2 0-15.6-3.1-35.4-3.1H615c-19.8 0-35.2 3.1-35.4 3.1l-.2-.8c.2-.1 16.8-5.5 20.3-6.9 3.6-1.4 4.8-3 5.2-3.7l-4.6-3.8.2-.2c.8-1.6 8.7-1.7 15.2-1.7h2c6.5 0 14.4.2 15.2 1.7l.2.3-4.6 3.7c.4.7 1.8 2.3 5.2 3.7 3.5 1.4 20.1 6.8 20.3 6.8l-.1.9z"/><path class="st1" d="M617.8 46c2 0 14 .2 14.8 1.7l-4.6 3.8s1 2.4 5.6 4.3c3.6 1.5 20.3 7 20.3 7S638.6 60 618.5 60H615c-20.1 0-35.5 2.9-35.5 2.9s16.7-5.6 20.3-7c4.8-1.9 5.6-4.3 5.6-4.3l-4.6-3.9c.8-1.6 12.8-1.7 14.8-1.7h2.2m0-1h-2c-14.5 0-15.4 1.7-15.7 2.3l-.4.8.6.5 3.9 3.2c-.5.7-1.8 2-4.7 3.1-3.5 1.4-20.1 6.9-20.3 7l.5 1.9c.2 0 15.5-2.8 35.3-2.8h3.5c19.7 0 35.1 2.8 35.3 2.8l.5-1.9c-.2-.1-16.8-5.5-20.3-7-2.7-1.1-4.1-2.4-4.7-3.2l3.9-3.2.6-.5-.4-.8c-.2-.5-1-2.2-15.6-2.2z"/><pattern id="SVGID_28_" xlink:href="#SVGID_49_" patternTransform="matrix(.3044 -.3044 .2435 .2435 -12923.522 -3908.653)"/><path d="M620.1 58.9c8.1.1 15.3.7 20.9 1.3-4-1.4-8-2.7-9.5-3.4-4.9-2-6.1-4.6-6.2-4.9l-.3-.7 3.9-3.2c-2.2-.5-7.1-.8-12.7-.8l3.9 11.7z" opacity=".4" fill="url(#SVGID_28_)" enable-background="new"/><path d="M571.6 70.1c11.8-1.4 25.7-2.2 40.7-2.2 19.1 0 36.7 1.3 50.2 3.5 0 0-2.9-1.5-4-2.1s-5.1-2-5.1-2l.7-4c-10.8-1.8-23.5-2.9-37-2.9-13.7 0-26.5 1.1-37.3 2.9l.6 3.5c-.1.1-5.7 1.5-8.8 3.3z" fill="#11395e"/><path d="M648.6 80.8c-18.6-2-19.5-3.2-31.8-3.2-12.7-.1-13.3 1.1-31.2 2l-2.3-7c4.6-.3 18.9-1.3 33.5-1.1 13.3.1 26.8 1.1 33.5 1.6l-1.7 7.7z" fill="#044f81"/><path d="M636.4 85.2c-5.6-.9-12.6-1.5-20.3-1.5-6 0-11.7.3-16.6.9" stroke-width=".5" fill="none" stroke="#4b94d0" stroke-miterlimit="10"/><path class="st60" d="M597.4 61.2l.5 4.4c1.6-.1 3.2-.1 4.9-.2l-.3-4.5-5.1.3zm10.1-.6l.2 4.6c1.6 0 3.2-.1 4.9-.1l-.1-4.6c-1.6.1-3.3.1-5 .1z"/><path class="st60" d="M602.4 60.9l.3 4.5c1.6-.1 3.2-.1 4.9-.2l-.2-4.6c-1.6.1-3.3.2-5 .3zm-15.1 1.3l.7 3.9c1.5-.1 3.1-.2 4.9-.3l-.6-4.2c-1.6.2-3.3.4-5 .6zm5-.6l.6 4.2c1.5-.1 3.2-.2 4.9-.2l-.5-4.4c-1.6.1-3.3.3-5 .4zm-12.6 1.6l.6 3.5s1-.1 2.8-.2l-.8-3.6c-.9.1-1.8.2-2.6.3z"/><path class="st60" d="M582.3 62.8l.8 3.6c1.3-.1 2.9-.2 4.9-.4l-.7-3.9c-1.7.3-3.3.5-5 .7z"/><path d="M612.5 60.5l.1 4.6h4.9v-4.6h-5zm5 0v4.6h6.2l.1-4.5c-2 0-4.3-.1-6.3-.1z" fill="#144372" stroke="#f4f0e2" stroke-miterlimit="10"/><path class="st60" d="M654 63.2s-1.8-.3-5.1-.7l-.7 4c1.7.2 3.5.4 5.1.7l.7-4zm-15.1-1.8l-.5 4.2c1.6.1 3.3.2 4.9.4l.6-4.1c-1.5-.2-3.2-.3-5-.5z"/><path class="st60" d="M643.9 61.9l-.6 4.1c1.6.1 3.3.3 4.9.5l.7-4c-1.4-.2-3.1-.4-5-.6zm-10.1-.8l-.3 4.3c1.6.1 3.3.2 4.9.3l.5-4.2c-1.6-.2-3.3-.3-5.1-.4zm-10-.5l-.1 4.5c1.6 0 3.3.1 4.9.1l.2-4.4c-1.6-.1-3.3-.1-5-.2z"/><path class="st60" d="M628.8 60.8l-.2 4.4c1.6 0 3.3.1 4.9.2l.3-4.3c-1.6-.1-3.2-.2-5-.3z"/><path class="st62" d="M612.5 83.6c-1-2-1.8-4.7-2.1-6-1.4 0-2.8.1-4.2.1.6 1.3 1.9 4 3.6 5.9.9.1 1.8 0 2.7 0z"/><path class="st62" d="M606.9 83.8c.9-.1 1.9-.1 2.9-.1-1.6-1.9-3-4.6-3.6-5.9-1.6.1-3.1.1-4.6.2.5.8 2.6 3.8 5.3 5.8zm8.5-.2c-.3-2-.6-4.7-.7-5.9h-4.3c.3 1.2 1.1 4 2.1 6 1-.1 1.9-.1 2.9-.1zm-11.1.4c-3.3-1.9-5.9-4.7-6.9-5.8-1.3.1-2.7.2-3.9.3 1.4 1.3 4.6 3.9 8.5 5.7.8-.1 1.5-.1 2.3-.2z"/><path class="st62" d="M602 84.2c-3.9-1.7-7.1-4.4-8.5-5.7-1.6.1-3.1.3-4.6.5 1.5 1 5.6 3.8 10.8 5.4.7 0 1.5-.1 2.3-.2zm2.3-.2c.8-.1 1.7-.1 2.5-.2-2.7-2.1-4.8-5.1-5.3-5.9-1.4.1-2.8.2-4.1.3 1 1.1 3.7 3.9 6.9 5.8zm11.3-.4h2.6c.3-2 .6-4.7.7-5.9h-4.3c.1 1.2.4 3.9.7 5.9h.3zm17.8 1.1c5.2-1.5 9.5-4 11.2-5l-4.2-.6c-1.3 1.1-4.8 3.7-9 5.3.7.1 1.4.2 2 .3z"/><path class="st62" d="M628.9 84.2c.8.1 1.7.2 2.5.3 4.2-1.7 7.6-4.3 9-5.3-1.5-.2-3-.3-4.6-.5-1.3 1.2-3.8 3.8-6.9 5.5zm-7.8-.5c1-1.9 1.8-4.6 2.1-5.9-1.4-.1-2.8-.1-4.2-.1-.1 1.2-.4 3.9-.7 5.9.9 0 1.8 0 2.8.1zm14.1 1.3c7.5-1.5 13.6-4.1 14.4-4.5-1.6-.3-3.3-.6-5-.8-1.7 1-6 3.5-11.2 5l1.8.3zm-55-4.7s3.9 2.7 16.8 4.3c-5.6-1.6-10.1-4-12-5-1.6.1-3.2.4-4.8.7z"/><path class="st62" d="M598.6 84.6c.3 0 .7-.1 1-.1-5.1-1.7-9.3-4.4-10.8-5.4-1.3.1-2.5.3-3.8.5 1.8 1 6.3 3.5 12 5 1.3.2 2.7.3 4.2.4-.6-.2-1.1-.3-1.6-.5-.3 0-.7.1-1 .1zm25.2-.8c1.6-1.9 2.9-4.4 3.6-5.8-1.4-.1-2.8-.1-4.2-.2-.4 1.3-1.2 4-2.1 5.9.9 0 1.8.1 2.7.1zm2.7.2c.8.1 1.6.1 2.4.2 3.1-1.7 5.6-4.2 6.8-5.6-1.3-.1-2.6-.2-4-.3-.7 1.1-2.7 3.8-5.2 5.7z"/><path class="st62" d="M626.5 84c2.5-1.9 4.5-4.6 5.3-5.7-1.5-.1-2.9-.2-4.5-.3-.6 1.4-2 4-3.6 5.8 1 .1 1.9.1 2.8.2zm-22.2 0c1 .6 2 1.1 3.1 1.4.8 0 1.6.1 2.4.1-1-.4-2-1-2.9-1.7-.9.1-1.7.1-2.6.2zm27.1.5c-1.1.4-2.3.8-3.6 1.1.9 0 1.8-.1 2.6-.1 1-.2 2-.4 2.9-.7-.5-.2-1.2-.3-1.9-.3zm-2.5-.3c-1.1.6-2.3 1.1-3.4 1.4.8 0 1.6 0 2.3-.1 1.2-.3 2.4-.6 3.6-1.1-.8 0-1.6-.1-2.5-.2z"/><path class="st62" d="M626.5 84c-1 .7-2 1.3-3.1 1.7h2.1c1.2-.3 2.4-.8 3.4-1.4-.7-.2-1.5-.3-2.4-.3z"/><path class="st62" d="M623.8 83.8c-.7.8-1.5 1.5-2.3 1.9h2c1.1-.3 2.1-.9 3.1-1.7-1-.1-1.9-.1-2.8-.2zm29-2.7c-1-.2-2.1-.4-3.2-.6-.9.4-6.9 3-14.4 4.5.2 0 .4.1.6.1 14.7-1.3 17-4 17-4z"/><path class="st62" d="M633.9 85.2c.6 0 1.3-.1 1.9-.1-.2 0-.4-.1-.6-.1-.4.1-.9.1-1.3.2zm-34.3-.7c.5.2 1.1.3 1.6.5 1.1.1 2.3.2 3.5.3-.9-.3-1.9-.6-2.7-1-.8 0-1.6.1-2.4.2z"/><path class="st62" d="M633.4 84.7c-.9.3-1.9.5-2.9.7 1.2-.1 2.3-.1 3.4-.2.4-.1.9-.2 1.3-.2l-1.8-.3zm-9.6-.9c-.9 0-1.8-.1-2.7-.1-.5.9-.9 1.6-1.5 2h1.9c.8-.4 1.6-1.1 2.3-1.9zm-14.1-.1c-1 0-1.9.1-2.9.1.9.7 1.9 1.3 2.9 1.7.7 0 1.4.1 2.2.1-.7-.4-1.5-1.1-2.2-1.9zm-7.7.5c.9.4 1.8.8 2.7 1 .9.1 1.7.1 2.7.2-1.1-.3-2.1-.8-3.1-1.4-.8.1-1.5.1-2.3.2z"/><path class="st62" d="M612.5 83.6c-.9 0-1.9 0-2.8.1.7.8 1.4 1.5 2.2 1.9h2c-.4-.4-.9-1.1-1.4-2zm8.6.1c-.9 0-1.9-.1-2.8-.1-.2.9-.3 1.7-.5 2.1h1.9c.4-.4.9-1.1 1.4-2z"/><path class="st62" d="M612.5 83.6c.4.9.9 1.6 1.4 2h1.9c-.2-.4-.3-1.2-.5-2.1-.9.1-1.8.1-2.8.1zm3.1 0h-.2c.2.9.3 1.7.5 2.1h1.9c.2-.4.3-1.2.5-2.1h-2.7zm-13.9-15.4l1.9 3.1c1.6 0 3.2-.1 4.9-.1l-1.2-3.1c-2 0-3.8 0-5.6.1z"/><path class="st62" d="M607.2 68.1l1.2 3.1h4.8l-.6-3.1c-1.8-.1-3.7-.1-5.4 0zm-11 .3l2.5 3c1.6-.1 3.2-.1 4.9-.2l-1.9-3.1c-1.9.1-3.7.2-5.5.3zM580 69.5l3.9 2.7c1.3-.1 2.9-.2 4.9-.3l-3.5-2.9c-1.8.2-3.5.3-5.3.5z"/><path class="st62" d="M572.4 70.2s6.4 2.2 10.3 2c.4 0 .8 0 1.2-.1l-3.9-2.7c-2.5.3-5.1.6-7.6.8zm18.3-1.5l3 3c1.5-.1 3.2-.1 4.9-.2l-2.5-3c-1.8 0-3.6.1-5.4.2z"/><path class="st53" d="M618.5 68.1v3-3h-5.9l.6 3.1h3.1c2.4 0 4.8.1 7.1.1l.6-3.1c-1.8-.1-3.5-.1-5.5-.1z"/><path class="st62" d="M585.3 69l3.5 2.9c1.5-.1 3.1-.2 4.9-.3l-3-3c-1.8.2-3.6.3-5.4.4zm66.4.9l-3.3 2.7c1.4.1 2.6.2 3.5.3h1.7l3.4-2.4c-1.7-.2-3.5-.4-5.3-.6z"/><path class="st62" d="M646.2 69.4l-2.9 2.9c1.9.1 3.6.3 5.1.4l3.3-2.7c-1.8-.3-3.6-.5-5.5-.6zm17.5 2c-2.2-.3-4.4-.6-6.7-.9l-3.4 2.4c1.9 0 5.3-.2 8.9-.9l1.2-.6z"/><path class="st62" d="M640.7 68.9l-2.3 3c1.8.1 3.5.2 5.1.3l2.9-2.9c-2-.1-3.9-.2-5.7-.4zm-11.2-.6l-1.2 3.1c1.7.1 3.4.1 5 .2l1.8-3c-1.9-.1-3.7-.2-5.6-.3zm5.6.3l-1.8 3c1.7.1 3.4.2 5 .3l2.3-3c-1.8-.1-3.6-.2-5.5-.3z"/><path class="st62" d="M624 68.2l-.6 3.1c1.7 0 3.3.1 4.9.2l1.2-3.1c-1.8-.1-3.7-.2-5.5-.2z"/><path d="M630.3 249.1l-5.4-66.6s-1.7-20.3-1.7-30.5 1.2-25.2 2-31 5.5-35.2 5.5-35.2l-1.9.3-7.2 44.7c0-2.6.1-4.1.2-5.1.6-4.8 5.1-38.8 5.1-38.8h-1.6l-4.6 32.5s-.9 4.7-3 4.7-2.6-9.2-2.6-9.2l-1.9-28.8-2-.1 2.3 36.3s.2 22.8 0 31.4c-.1 3.9.3 35.3.8 68.3h-9.8c1.4-12 5.8-50.5 5.8-56.7 0-7.4-.8-43.7-1.6-51.9s-2.5-27.2-2.5-27.2l-5.5-.4s7.3 45.5 7.3 50.7 1.1 19.4-1.1 42.3c-.7 7.7-16.2 125.1-16.2 125.1h4.5l8.9-78h10.3c.5 39 1.2 79 1.2 79h2.2l-.1-16h5.4l.6 16h2.6l-.5-16h4.3v-1.1l2 13.1h2.5l-4.3-51.8zm-13.6-57.7c0-3.8 0-13 1.4-15.4 0 0 1.5 3.5 1.6 9 .1 5.4 1 36.1 1 36.1v.9H617c-.1-13-.3-28.5-.3-30.6zm.4 34.6h3.7l.5 13h-4c0-2-.1-7-.2-13zm.3 16h4.1l.5 13h-4.5l-.1-13zm-1.4 44v-.7l1.5-28.3h4.5l1 29h-7zm7.5-64c-.4-10-1.5-38.9-1.7-48.6l2.9 36.1 1 12.5h-2.2zm.1 4h2.3l1.1 13h-3l-.4-13zm2 60l-.9-29h2.3v-2h-2.4l-.4-13h3.1l1.1 13 2.5 31h-5.3z" stroke-width="2" fill="#03324c" stroke="#fff" stroke-miterlimit="10"/><path class="st12" d="M629.8 249.9l-5.4-66.8s-1.7-20.4-1.7-30.5 1.2-25.2 2-31 5.5-35.3 5.5-35.3l-1.9.3-7.2 44.7c0-2.6.1-3.9.2-4.8.6-4.8 5.1-38.5 5.1-38.5h-1.6l-4.6 32.3s-.9 4.5-3 4.5-2.6-9.3-2.6-9.3l-1.9-28.8-2-.2 2.3 36.3s.2 23 0 31.7c-.1 3.9.3 35.5.8 68.5H604c1.4-12 5.8-50.8 5.8-57 0-7.4-.8-43.8-1.6-52s-2.5-27.2-2.5-27.2l-5.5-.4s7.3 45.5 7.3 50.7 1.1 19.6-1.1 42.6c-.7 7.7-16.2 125.4-16.2 125.4h4.5l8.9-78h10.3c.5 39 1.2 79 1.2 79h2.2l-.1-16h5.4l.6 16h2.6l-.5-15.8 4.6-.1 1.8 11.9h2.5l-4.4-52.2zm-13.6-57.8c0-3.8 0-13.1 1.4-15.5 0 0 1.5 3.5 1.6 8.9s1 36.3 1 36.3v1.2h-3.7c-.1-13-.3-28.8-.3-30.9zm.4 34.9h3.7l.5 13h-4c0-2-.1-7-.2-13zm.3 16h4.1l.5 13H617l-.1-13zm.3 15.4l4.2-.1 1 29-5.6-.3.4-28.6zM623 223c-.4-10-1.5-39.1-1.7-48.8l2.9 36.2 1 12.6H623zm.1 4h2.3l1.1 13h-3l-.4-13zm2 60l-.9-29h4.8v-2h-4.9l-.4-13h3.1l1.1 13 2.5 31h-5.3z"/><path class="st64" d="M647 436.5h-92.5v-138h79v-14h14V366"/><path class="st5" d="M1650.5 143v-41.9l-61.6-8.3-80.4 8.3V221"/><pattern id="SVGID_29_" xlink:href="#SVGID_50_" patternTransform="matrix(.7071 -.70712 .5657 .56568 -2148.749 1084.15)"/><path d="M1588 221V92.4l-79 8.7V221z" opacity=".4" fill="url(#SVGID_29_)" enable-background="new"/><path d="M835.7 376.6l.2-114.4 6.4-19.7h50.9l.3 25h186v-90h44v-58h20v-13h25v-10h44v13h7v-17h43v14h35v19.1l19.6-15.1h37.4v41h19v17h22v19h10v10h27v23h179v-69.9l51-9.7 61 8.7V279" stroke-linecap="round" fill="none" stroke="#fff" stroke-miterlimit="10"/><path class="st5" d="M745.5 376.5h-59V234.1l34.1-8.6h24.9z"/><path class="st67" d="M720.5 226.1l-34 8v143.2l34-.4z"/><path class="st5" d="M786.5 89v266"/><path class="st26" d="M554.8 298.2l-17.3 3.8v134.5H555c0-1-.2-138.3-.2-138.3z"/><path d="M554.8 298.2l-17.3 3.8v134.5H555c0-1-.2-138.3-.2-138.3z" fill="#3a91ce" stroke="#0b598a" stroke-miterlimit="10"/><path class="st5" d="M562.5 436.5h-37V386l21.2-4.5h15.8z"/><path class="st67" d="M546.5 381.4l-21 4.6v50.5h21z"/><path d="M521.5 392.2l-17 3.6v40.7h17z" opacity=".51" enable-background="new" fill="#55a4db" stroke="#fff" stroke-miterlimit="10"/><path class="st5" d="M647 436.5h-95.5v-60.3l24.6-5.7h70.4v5.5"/><path class="st5" d="M667.5 376.5v.1l.6-.1h-1.6v.2l-41 3.3v9.5l-22 1.6v9.5l-13 1.1v34.2l56.5 2 68.3-8.9.2-.6v-51.9z"/><path class="st5" d="M667 376.5h48.5v51.4l-68.4 10-26.6-.8V401"/><path d="M647.5 379l20.6-1.7v9.7l-41.2 3v-9.4l20.6-1.6" fill="#55a4db" fill-opacity=".33" stroke="#fff" stroke-width="1.249" stroke-miterlimit="10" opacity=".51" enable-background="new"/><path d="M646.9 388.6v9.1l-43.2 3.6-.2-10.2zm-26.2 11.3v37.3h-28.8v-34.9z" fill="#55a4db" fill-opacity=".33" stroke="#fff" stroke-width="1.249" stroke-miterlimit="10"/><path class="st53" d="M1050.5 379.5v36.3l-260 35.2v-47.5z"/><path class="st53" d="M1050.5 372.8v6.7l-257.9 25h-10.1v-9.7z"/><path class="st53" d="M1042.8 365.9l10 7.3-268.5 22.3h-13.1c0-7-8.8-14.1-15.6-14.1l287.2-15.5z"/><path class="st12" d="M688 404h104v47H688z"/><path class="st28" d="M688 404h104v47H688z"/><path class="st5" d="M688.5 403.5h103v47h-103z"/><path class="st12" d="M696 395h88v9h-88z"/><path class="st28" d="M696 395h88v9h-88z"/><path class="st5" d="M695.5 394.5h89v9h-89z"/><path class="st12" d="M771.2 395h-53.7c0-9 12-15.3 26.9-15.3s26.8 6.3 26.8 15.3z"/><path class="st28" d="M771.2 395h-53.7c0-9 12-15.3 26.9-15.3s26.8 6.3 26.8 15.3z"/><path class="st5" d="M771.2 394.5h-53.7c0-8 12-15.3 26.9-15.3s26.8 7.3 26.8 15.3z"/><ellipse class="st53" cx="744.3" cy="387.4" rx="3.2" ry="4.3"/><path class="st72" d="M934 370V226h8v-44h8v-12h7v-9h5.3l-.4-19.2 47.1-7.1V154h14v22.8l7-.6V362"/><path class="st28" d="M934 370V226h8v-44h8v-12h7v-9h5.3l-.4-19.2 47.1-7.1V154h14v22.8l7-.6V362"/><path class="st5" d="M934.5 370V226.5h7v-44h9v-13h6v-8h5.8l-.1-19.4 47.3-7.4v18.8h13v23.3l8-.6V362"/><g class="st73"><pattern id="SVGID_38_" xlink:href="#SVGID_51_" patternTransform="matrix(.7071 -.70712 .5657 .56568 -2148.749 1084.15)" class="st73"/><path d="M934 370V226h8v-44h8v-12h7v-9h5.3l-.4-19.2 47.1-7.1V154h14v22.8l7-.6V362" fill="url(#SVGID_38_)"/><path class="st28" d="M934 370V226h8v-44h8v-12h7v-9h5.3l-.4-19.2 47.1-7.1V154h14v22.8l7-.6V362"/></g><path class="st12" d="M1546 374v-39h-36v-5h-27v8h-25v-14h-10v8h-4v-6h-9v7h-107v38"/><pattern id="SVGID_39_" xlink:href="#SVGID_52_" patternTransform="matrix(.7071 -.70712 .5657 .56568 -2148.749 1084.15)"/><path d="M1546 374v-39h-36v-5h-27v8h-25v-14h-10v8h-4v-6h-9v7h-107v38" opacity=".4" fill="url(#SVGID_39_)" enable-background="new"/><path class="st5" d="M1546.5 390v-55.5h-36v-5h-27v8h-25v-14h-10v8h-4v-6h-9v7h-107V371"/><path class="st5" d="M1652.5 373.5h-337l-9 17h346zm-346 17h346v34h-346zm33 34h282v41h-282z"/><path class="st12" d="M1677.7 371.4l158.7 18v10l-158.3-12.7v-12.6"/><path class="st1" d="M1836.4 389.4l-159-17-32.6-15 178.7 20.5-177.2-19.8 31.4 13.3z"/><path class="st1" d="M1836.5 399.4L1677 386.6V371h1v14.5z"/><pattern id="SVGID_40_" xlink:href="#SVGID_53_" patternTransform="matrix(.7071 -.70712 .5657 .56568 -2148.749 1084.15)"/><path d="M1847 465h-124v-55.1l124 2.1z" fill="url(#SVGID_40_)" opacity=".4" enable-background="new"/><path class="st12" d="M1678.5 386.7l158.9 12.7 14 12.6-122.4-1.6z"/><path class="st1" d="M1826.5 412.2l-98.5-2 1.3-1.2 117.7 3z"/><path class="st5" d="M1619.5 398.5h-274.4l-7.5 26h281.9zm42.5-132h-102.5v7h-42v-12h-23v-14h-64v-9h-42v24h-38V333m312 26v-92"/><use xlink:href="#New_Symbol" width="16" height="14.1" id="XMLID_1_" x="-8" y="-7.1" transform="matrix(.7785 0 0 -.7785 1292.556 111.15)" overflow="visible"/><use xlink:href="#New_Symbol" width="16" height="14.1" x="-8" y="-7.1" transform="matrix(.7785 0 0 -.7785 1250.086 86.168)" overflow="visible"/><use xlink:href="#New_Symbol" width="16" height="14.1" x="-8" y="-7.1" transform="matrix(.7785 0 0 -.7785 1200.12 69.93)" overflow="visible"/><use xlink:href="#New_Symbol" width="16" height="14.1" x="-8" y="-7.1" transform="matrix(.7785 0 0 -.7785 1327.532 149.873)" overflow="visible"/><use xlink:href="#New_Symbol" width="16" height="14.1" x="-8" y="-7.1" transform="matrix(.7785 0 0 -.7785 1350.016 199.838)" overflow="visible"/><use xlink:href="#New_Symbol" width="16" height="14.1" x="-8" y="-7.1" transform="matrix(.7785 0 0 -.7785 1356.262 249.804)" overflow="visible"/><use xlink:href="#New_Symbol" width="16" height="14.1" x="-8" y="-7.1" transform="matrix(.7785 0 0 -.7785 1348.767 302.267)" overflow="visible"/><use xlink:href="#New_Symbol" width="16" height="14.1" x="-8" y="-7.1" transform="matrix(.7785 0 0 -.7785 1331.28 344.737)" overflow="visible"/><use xlink:href="#New_Symbol" width="16" height="14.1" x="-8" y="-7.1" transform="matrix(.7785 0 0 -.7785 1298.802 383.46)" overflow="visible"/><use xlink:href="#New_Symbol" width="16" height="14.1" x="-8" y="-7.1" transform="rotate(180 531.123 54.95) scale(.7785)" overflow="visible"/><use xlink:href="#New_Symbol" width="16" height="14.1" x="-8" y="-7.1" transform="rotate(180 552.983 43.084) scale(.7785)" overflow="visible"/><use xlink:href="#New_Symbol" width="16" height="14.1" x="-8" y="-7.1" transform="rotate(180 577.34 35.59) scale(.7785)" overflow="visible"/><use xlink:href="#New_Symbol" width="16" height="14.1" x="-8" y="-7.1" transform="rotate(180 512.386 76.81) scale(.7785)" overflow="visible"/><use xlink:href="#New_Symbol" width="16" height="14.1" x="-8" y="-7.1" transform="rotate(180 502.393 99.295) scale(.7785)" overflow="visible"/><use xlink:href="#New_Symbol" width="16" height="14.1" x="-8" y="-7.1" transform="rotate(180 498.02 125.526) scale(.7785)" overflow="visible"/><use xlink:href="#New_Symbol" width="16" height="14.1" x="-8" y="-7.1" transform="rotate(180 502.393 151.133) scale(.7785)" overflow="visible"/><use xlink:href="#New_Symbol" width="16" height="14.1" x="-8" y="-7.1" transform="rotate(180 512.386 174.242) scale(.7785)" overflow="visible"/><use xlink:href="#New_Symbol" width="16" height="14.1" x="-8" y="-7.1" transform="rotate(180 531.123 194.853) scale(.7785)" overflow="visible"/><circle class="st77" cx="1176.5" cy="247.1" r="41"/><circle class="st77" cx="1176.5" cy="247.1" r="82.4"/><circle class="st77" cx="1176.5" cy="247.1" r="87.8"/><circle class="st77" cx="1176.5" cy="247.1" r="46.8"/><circle class="st77" cx="1176.5" cy="247.1" r="128.4"/><circle class="st77" cx="1176.5" cy="247.1" r="135.1"/><path class="st78" d="M1257.3 412.5c61.2-29.9 103.3-92.8 103.3-165.4 0-101.7-82.4-184.1-184.1-184.1s-184.1 82.4-184.1 184.1c0 72 41.4 134.4 101.7 164.6m37.8 14c14.3 3.6 29.2 5.4 44.6 5.4 16.7 0 32.9-2.2 48.3-6.4"/><path class="st5" d="M1173.5 248V63m5 185V63"/><path class="st77" d="M1173.5 216.7l5.1 5.6m0 1.3l-5.1 5.2m0-25.4l5.2 5.9m-.2 1l-5 5.2m0-25.4l5.1 5.9m.1 1l-5.2 5.2m0-25.3l5.1 5.7m-.1 1.1l-5 5.2m0-25.3l5 5.5m.1 1.5l-5.1 5.1m0-25.4l5.2 5.4m0 1.6l-5.2 5.1m0-25.3l5.1 5.6m0 1.4l-5.1 5M1173.5 123.8l5.1 5.1m0 1.9l-5.1 5.1M1173.5 110.5l5.1 5.2m0 .7l-5.1 6.2M1173.5 97.2l5 6.2m0 .9l-5 5M1173.5 84l5 4.9m0 1l-5 6.1M1173.5 70.7l5 6.2m0 .9l-5 5"/><path class="st5" d="M1173.8 246.8l92.5-160.3m-88.1 162.7L1270.7 89"/><path class="st77" d="M1189.5 219.6l1.6 7.4m-.6 1.2l-7.1 1.9m12.7-22l1.6 7.7m-.7.8l-6.9 2m12.7-22l1.5 7.7m-.5.9l-7.1 1.9m12.7-21.9l1.6 7.5m-.7.9l-6.9 2m12.6-21.9l1.6 7.2m-.6 1.4l-7 1.8m12.7-22l1.8 7.3m-.8 1.4l-7.1 1.8M1229.3 150.7l1.6 7.4m-.7 1.2l-6.9 1.8M1235.9 139.2l1.9 7m-.9 1.6l-7 1.9M1242.6 127.7l1.8 7m-.3.6l-7.6 2.9M1249.2 116.2l1.3 7.8m-.5.8l-6.8 1.8M1255.8 104.7l1.9 6.8m-.5.8l-7.4 2.8M1262.5 93.2l1.2 7.9m-.4.8l-6.9 1.8"/><path class="st5" d="M1174.8 245.8l160.2-92.5m-157.8 96.9l160.3-92.5"/><path class="st77" d="M1201.9 230.2l-2.3 7.2m-1.2.7l-7-1.9m22-12.7l-2.5 7.5m-1 .3l-7-1.7m22-12.7l-2.6 7.4m-.8.5l-7.1-1.9m21.9-12.6l-2.4 7.3m-1 .4l-7-1.7m21.9-12.7l-2.2 7.1m-1.3.9l-6.9-1.9m22-12.7l-2.1 7.2m-1.4.8l-7-2M1270.8 190.4l-2.3 7.2m-1.2.7l-6.9-1.9M1282.3 183.7l-1.9 7m-1.6 1l-7-1.9M1293.8 177.1l-1.9 7m-.6.4l-8-1.4M1305.3 170.4l-2.8 7.5m-.8.4l-6.8-1.8M1316.8 163.8l-1.8 6.8m-.8.5l-7.8-1.3M1328.3 157.2l-2.9 7.4m-.8.5l-6.8-1.9"/><path class="st5" d="M1176 245.5h185m-185 5h185"/><path class="st77" d="M1207.3 245.5l-5.6 5.1m-1.3 0l-5.2-5.1m25.4 0l-5.9 5.2m-1-.2l-5.2-5m25.4 0l-5.9 5.1m-1 .1l-5.2-5.2m25.3 0l-5.7 5.1m-1.1-.1l-5.2-5m25.3 0l-5.5 5m-1.5.1l-5.1-5.1m25.4 0l-5.4 5.2m-1.6 0l-5.1-5.2M1286.9 245.5l-5.6 5.1m-1.4 0l-5-5.1M1300.2 245.5l-5.1 5.1m-1.9 0l-5.1-5.1M1313.5 245.5l-5.2 5.1m-.7 0l-6.2-5.1M1326.8 245.5l-6.2 5m-.9 0l-5-5M1340 245.5l-4.9 5m-1 0l-6.1-5M1353.3 245.5l-6.2 5m-.9 0l-5-5"/><path class="st5" d="M1177.2 245.8l160.3 92.5m-162.7-88.1l160.2 92.5"/><path class="st77" d="M1204.4 261.5l-7.4 1.6m-1.2-.6l-1.9-7.1m22 12.7l-7.7 1.6m-.8-.7l-2-6.9m22 12.7l-7.7 1.5m-.9-.5l-1.9-7.1m21.9 12.7l-7.5 1.6m-.9-.7l-2-6.9m21.9 12.6l-7.2 1.6m-1.4-.6l-1.8-7m22 12.7l-7.3 1.8m-1.4-.8l-1.8-7.1M1273.3 301.3l-7.4 1.6m-1.2-.7l-1.8-6.9M1284.8 307.9l-7 1.9m-1.6-.9l-1.9-7M1296.3 314.6l-7 1.8m-.6-.3l-2.9-7.6M1307.8 321.2l-7.8 1.3m-.8-.5l-1.8-6.8M1319.3 327.8l-6.8 1.9m-.8-.5l-2.8-7.4M1330.8 334.5l-7.9 1.2m-.8-.4l-1.8-6.9"/><path class="st5" d="M1178.2 246.8l92.5 160.2m-96.9-157.8l92.5 160.3"/><path class="st77" d="M1193.8 273.9l-7.2-2.3m-.7-1.2l1.9-7m12.7 22l-7.5-2.5m-.3-1l1.7-7m12.7 22l-7.4-2.6m-.5-.8l1.9-7.1m12.6 21.9l-7.3-2.4m-.4-1l1.7-7m12.7 21.9l-7.1-2.2m-.9-1.3l1.9-6.9m12.7 22l-7.2-2.1m-.8-1.4l2-7M1233.6 342.8l-7.2-2.3m-.7-1.2l1.9-6.9M1240.3 354.3l-7-1.9m-1-1.6l1.9-7M1246.9 365.8l-7-1.9m-.4-.6l1.4-8M1253.6 377.3l-7.5-2.8m-.4-.8l1.8-6.8M1260.2 388.8l-6.8-1.8m-.5-.8l1.3-7.8M1266.8 400.3l-7.4-2.9m-.5-.8l1.9-6.8"/><g><path class="st5" d="M1178.5 248v185m-5-185v185"/><path class="st77" d="M1178.5 279.3l-5.1-5.6m0-1.3l5.1-5.2m0 25.4l-5.2-5.9m.2-1l5-5.2m0 25.4l-5.1-5.9m-.1-1l5.2-5.2m0 25.3l-5.1-5.7m.1-1.1l5-5.2m0 25.3l-5-5.5m-.1-1.5l5.1-5.1m0 25.4l-5.2-5.4m0-1.6l5.2-5.1M1178.5 358.9l-5.1-5.6m0-1.4l5.1-5M1178.5 372.2l-5.1-5.1m0-1.9l5.1-5.1M1178.5 385.5l-5.1-5.2m0-.7l5.1-6.2M1178.5 398.8l-5-6.2m0-.9l5-5M1178.5 412l-5-4.9m0-1l5-6.1M1178.5 425.3l-5-6.2m0-.9l5-5"/></g><g><path class="st5" d="M1178.2 249.2l-92.5 160.3m88.1-162.7L1081.3 407"/><path class="st77" d="M1162.5 276.4l-1.6-7.4m.6-1.2l7.1-1.9m-12.7 22l-1.6-7.7m.7-.8l6.9-2m-12.7 22l-1.5-7.7m.5-.9l7.1-1.9m-12.7 21.9l-1.6-7.5m.7-.9l6.9-2m-12.6 21.9l-1.6-7.2m.6-1.4l7-1.8m-12.7 22l-1.8-7.3m.8-1.4l7.1-1.8M1122.7 345.3l-1.6-7.4m.7-1.2l6.9-1.8M1116.1 356.8l-1.9-7m.9-1.6l7-1.9M1109.4 368.3l-1.8-7m.3-.6l7.6-2.9M1102.8 379.8l-1.3-7.8m.5-.8l6.8-1.8M1096.2 391.3l-1.9-6.8m.5-.8l7.4-2.8M1089.5 402.8l-1.2-7.9m.4-.8l6.9-1.8"/></g><g><path class="st5" d="M1177.2 250.2L1017 342.7m157.8-96.9l-160.3 92.5"/><path class="st77" d="M1150.1 265.8l2.3-7.2m1.2-.7l7 1.9m-22 12.7l2.5-7.5m1-.3l7 1.7m-22 12.7l2.6-7.4m.8-.5l7.1 1.9m-21.9 12.6l2.4-7.3m1-.4l7 1.7m-21.9 12.7l2.2-7.1m1.3-.9l6.9 1.9m-22 12.7l2.1-7.2m1.4-.8l7 2M1081.2 305.6l2.3-7.2m1.2-.7l6.9 1.9M1069.7 312.3l1.9-7m1.6-1l7 1.9M1058.2 318.9l1.9-7m.6-.4l8 1.4M1046.7 325.6l2.8-7.5m.8-.4l6.8 1.8M1035.2 332.2l1.8-6.8m.8-.5l7.8 1.3M1023.7 338.8l2.9-7.4m.8-.5l6.8 1.9"/></g><g><path class="st5" d="M1176 250.5H991m185-5H991"/><path class="st77" d="M1144.7 250.5l5.6-5.1m1.3 0l5.2 5.1m-25.4 0l5.9-5.2m1 .2l5.2 5m-25.4 0l5.9-5.1m1-.1l5.2 5.2m-25.3 0l5.7-5.1m1.1.1l5.2 5m-25.3 0l5.5-5m1.5-.1l5.1 5.1m-25.4 0l5.4-5.2m1.6 0l5.1 5.2M1065.1 250.5l5.6-5.1m1.4 0l5 5.1M1051.8 250.5l5.1-5.1m1.9 0l5.1 5.1M1038.5 250.5l5.2-5.1m.7 0l6.2 5.1M1025.2 250.5l6.2-5m.9 0l5 5M1012 250.5l4.9-5m1 0l6.1 5M998.7 250.5l6.2-5m.9 0l5 5"/></g><g><path class="st5" d="M1174.8 250.2l-160.3-92.5m162.7 88.1L1017 153.3"/><path class="st77" d="M1147.6 234.5l7.4-1.6m1.2.6l1.9 7.1m-22-12.7l7.7-1.6m.8.7l2 6.9m-22-12.7l7.7-1.5m.9.5l1.9 7.1m-21.9-12.7l7.5-1.6m.9.7l2 6.9m-21.9-12.6l7.2-1.6m1.4.6l1.8 7m-22-12.7l7.3-1.8m1.4.8l1.8 7.1M1078.7 194.7l7.4-1.6m1.2.7l1.8 6.9M1067.2 188.1l7-1.9m1.6.9l1.9 7M1055.7 181.4l7-1.8m.6.3l2.9 7.6M1044.2 174.8l7.8-1.3m.8.5l1.8 6.8M1032.7 168.2l6.8-1.9m.8.5l2.8 7.4M1021.2 161.5l7.9-1.2m.8.4l1.8 6.9"/></g><g><path class="st5" d="M1173.8 249.2L1081.3 89m96.9 157.8l-92.5-160.3"/><path class="st77" d="M1158.2 222.1l7.2 2.3m.7 1.2l-1.9 7m-12.7-22l7.5 2.5m.3 1l-1.7 7m-12.7-22l7.4 2.6m.5.8l-1.9 7.1m-12.6-21.9l7.3 2.4m.4 1l-1.7 7m-12.7-21.9l7.1 2.2m.9 1.3l-1.9 6.9m-12.7-22l7.2 2.1m.8 1.4l-2 7M1118.4 153.2l7.2 2.3m.7 1.2l-1.9 6.9M1111.7 141.7l7 1.9m1 1.6l-1.9 7M1105.1 130.2l7 1.9m.4.6l-1.4 8M1098.4 118.7l7.5 2.8m.4.8l-1.8 6.8M1091.8 107.2l6.8 1.8m.5.8l-1.3 7.8M1085.2 95.7l7.4 2.9m.5.8l-1.9 6.8"/></g><g><path class="st5" d="M1173.5 248V63m5 185V63"/><path class="st77" d="M1173.5 216.7l5.1 5.6m0 1.3l-5.1 5.2m0-25.4l5.2 5.9m-.2 1l-5 5.2m0-25.4l5.1 5.9m.1 1l-5.2 5.2m0-25.3l5.1 5.7m-.1 1.1l-5 5.2m0-25.3l5 5.5m.1 1.5l-5.1 5.1m0-25.4l5.2 5.4m0 1.6l-5.2 5.1M1173.5 137.1l5.1 5.6m0 1.4l-5.1 5M1173.5 123.8l5.1 5.1m0 1.9l-5.1 5.1M1173.5 110.5l5.1 5.2m0 .7l-5.1 6.2M1173.5 97.2l5 6.2m0 .9l-5 5M1173.5 84l5 4.9m0 1l-5 6.1M1173.5 70.7l5 6.2m0 .9l-5 5"/></g><circle class="st29" cx="1176.5" cy="247.1" r="15.8"/><circle cx="1176.5" cy="247.1" r="10" stroke-width="2.498" fill="none" stroke="#fff" stroke-miterlimit="10"/><path class="st72" d="M1258.4 412.4l18.8 38.6h-49.1l-5.9-24.3s-8.3-14.5-45.7-14.5c-37.4 0-43.9 10.6-43.9 10.6l-6.9 28.2h-49.1l99.9-203.1-40.7 161.7c11.8-1.9 25.6-3.5 40.7-3.5 16.3 0 30.3 1.6 41.6 3.8l-40.9-162.3 81.2 164.8"/><pattern id="SVGID_41_" xlink:href="#SVGID_54_" patternTransform="scale(1.1152 1) rotate(-45 5823.333 965.167)"/><path d="M1258.4 412.4l18.8 38.6h-49.1l-5.9-24.3s-8.3-14.5-45.7-14.5c-37.4 0-43.9 10.6-43.9 10.6l-6.9 28.2h-49.1l99.9-203.1-40.7 161.7c11.8-1.9 25.6-3.5 40.7-3.5 16.3 0 30.3 1.6 41.6 3.8l-40.9-162.3 81.2 164.8" opacity=".35" fill="url(#SVGID_41_)" enable-background="new"/><path d="M1258.4 412.1l18.8 38.4h-49.1l-5.9-24s-8.3-14.4-45.7-14.4c-37.4 0-43.9 10.4-43.9 10.4l-6.9 28h-49.1l99.9-202.9-40.7 161.8c11.8-1.9 25.6-3.4 40.7-3.4 16.3 0 30.3 1.7 41.6 3.8l-40.9-162.4 81.2 164.7" fill="none" stroke="#fff" stroke-linecap="round" stroke-linejoin="round" stroke-miterlimit="10"/><path d="M1256.1 408.6c59.5-29.4 100.4-90.7 100.4-161.5 0-99.4-80.6-180-180-180s-180 80.6-180 180c0 70.8 40.9 132.1 100.4 161.5" stroke="#fff" stroke-width="1.249" stroke-miterlimit="10" opacity=".43" fill="none" enable-background="new"/><path class="st29" d="M1132.7 421.7c14 3.5 28.7 5.4 43.8 5.4 15.6 0 30.7-2 45.1-5.7"/><pattern id="SVGID_42_" xlink:href="#SVGID_55_" patternTransform="matrix(.7071 -.70712 .5657 .56568 -2148.749 1084.15)"/><path d="M1612 150v116h50V140" opacity=".4" fill="url(#SVGID_42_)" enable-background="new"/><path d="M1331.5 472v20" stroke-linecap="round" stroke-linejoin="round" fill="none" stroke="#0b598a" stroke-miterlimit="10"/><path class="st35" d="M1221 421.5l1.3 5.2"/><path class="st78" d="M1360.6 247.1c0-101.7-82.4-184.1-184.1-184.1"/><path class="st53" d="M745.5 98.1l41-10v291.3l-41 .1z"/><path d="M1730.4 409.5l-36.8-16.7-16.1-7.4v-13.7l-32.5-14-36.9 17.8h5.4v9.7l-61.6 28.3h8.6v52h163v-56z" fill="#144372" stroke="#fff" stroke-miterlimit="10"/><path d="M1009.5 119.7l-15 3.1v13.6l15.1-2.5z" fill="#126fa1" stroke="#fff" stroke-miterlimit="10"/><pattern id="SVGID_58_" xlink:href="#SVGID_56_" patternTransform="rotate(-45.002 -10282.24 12565.1) scale(.4783 .3827)"/><path d="M1009 119.6l-15 3.2V136" opacity=".4" fill="url(#SVGID_58_)" enable-background="new"/><path class="st5" d="M1822.6 377.6l13.9 11.8v10l15.7 13.1h-5.7V466"/><path class="st64" d="M546.5 381.5h16v55h-16z"/><path class="st38" d="M559.3 380.6l-7.3.2v-4.2l5.4-1z"/><path class="st88" d="M604.5 454.5v12h438.3l-3 22h291.7v6h392v-23h-392v-5h-289.2l10.7-12H606.3l14.6-6H493.5v6z"/><path class="st88" d="M-1.5 448.5h622v19h-622z"/><path d="M1722.5 471.5h621v19h-621z" opacity=".5" stroke-linecap="round" stroke-linejoin="round" enable-background="new" fill="#162f38" stroke="#fff" stroke-miterlimit="10"/><path d="M688.3 403.7l104.2.2v47.5l-104.7-.4z" fill="#3a91ce" stroke="#fff" stroke-miterlimit="10"/><pattern id="SVGID_59_" xlink:href="#SVGID_57_" patternTransform="matrix(.8166 -.7876 .6533 .6301 773.71 2008.758)"/><path d="M318 144h45v300h-45z" opacity=".18" fill="url(#SVGID_59_)" enable-background="new"/><path class="st12" d="M-2 431h506v13H-2z"/></g></g></g></g></svg>